<svg width="154.184814453125px" height="122px" xmlns="http://www.w3.org/2000/svg" viewBox="172.9075927734375 14 154.184814453125 122" style="background: rgba(255, 255, 255, 0);" preserveAspectRatio="xMidYMid"><defs><linearGradient id="editing-outline-gradient" x1="-0.41354545764260087" x2="1.4135454576426008" y1="0.09326335692419985" y2="0.9067366430758002"><stop offset="0" stop-color="#ee4208"></stop><stop offset="1" stop-color="#4139ff"></stop></linearGradient><filter id="editing-outline" x="-100%" y="-100%" width="300%" height="300%"><feMorphology in="SourceGraphic" operator="dilate" radius="1" result="outline"></feMorphology><feComposite operator="out" in="outline" in2="SourceAlpha"></feComposite></filter></defs><g filter="url(#editing-outline)"><g transform="translate(206.81473588943481, 102.80999946594238)"><path d="M-6.98 8.83L-6.98 8.83L-6.98 8.83Q-3.71 8.45-1.66 4.22L-1.66 4.22L-1.66 4.22Q0.45-0.06 2.37-9.92L2.37-9.92L8.58-42.24L22.46-42.24L16.26-9.92L16.26-9.92Q13.89 2.62 9.98 7.55L9.98 7.55L9.98 7.55Q7.94 10.11 5.34 11.14L5.34 11.14L5.34 11.14Q2.75 12.16-0.06 12.16L-0.06 12.16L-0.06 12.16Q-2.88 12.16-4.70 11.14L-4.70 11.14L-4.70 11.14Q-6.53 10.11-6.98 8.83ZM25.47-39.68L25.47-39.68L25.47-39.68Q26.37-41.47 28.32-42.46L28.32-42.46L28.32-42.46Q30.27-43.46 32.96-43.46L32.96-43.46L32.96-43.46Q37.18-43.46 39.71-40.42L39.71-40.42L39.71-40.42Q42.24-37.38 42.24-30.72L42.24-30.72L42.24-7.87L56.90-42.18L64.45-42.18L66.18-9.79L65.98-7.94L81.22-42.18L89.98-42.18L69.50 0L55.87 0L54.59-19.46L46.14 0L30.72 0L28.80-30.72L28.80-30.72Q28.61-34.18 27.68-36.45L27.68-36.45L27.68-36.45Q26.75-38.72 25.47-39.68Z" fill="url(#editing-outline-gradient)"></path></g></g><style>text {
  font-size: 64px;
  font-family: Arial Black;
  dominant-baseline: central;
  text-anchor: middle;
}</style></svg>