<svg width="134.6375px" height="103.2000030517578px" xmlns="http://www.w3.org/2000/svg" viewBox="182.68125 23.399998474121098 134.6375 103.2000030517578" style="background: rgba(0, 0, 0, 0);" preserveAspectRatio="xMidYMid"><defs><linearGradient id="editing-shiny-gradient" x1="0.9145187862775209" x2="0.08548121372247908" y1="0.7795964517353733" y2="0.22040354826462666" gradientUnits="objectBoundingBox"><stop offset="0.0" stop-color="#00b0ff"></stop><stop offset="0.5" stop-color="#29c7b5"></stop><stop offset="1.0" stop-color="#29c7b5"></stop></linearGradient><linearGradient id="editing-shiny-gradient2" x1="0" x2="0" y1="0" y2="1"><stop offset="0.2" stop-color="#fff" stop-opacity="0.8"></stop><stop offset="0.8" stop-color="#fff" stop-opacity="0"></stop></linearGradient><filter id="editing-shiny2" x="-100%" y="-100%" width="300%" height="300%"><feMorphology operator="erode" radius="2"></feMorphology></filter><filter id="editing-shiny" x="-100%" y="-100%" width="300%" height="300%"><feFlood flood-color="#fff" result="flood"></feFlood><feConvolveMatrix in="SourceGraphic" result="conv" order="8,8" divisor="1" kernelMatrix="0 0 0 0 0 0 0 0 0 0 0 1 1 0 0 0 0 0 0 1 1 0 0 0 0 0 1 0 0 1 0 0 0 0 1 0 0 1 0 0 0 1 0 0 0 0 1 0 0 1 1 0 0 1 1 0 0 0 0 1 1 0 0 0 "></feConvolveMatrix><feOffset dx="0" dy="4" in="conv" result="offset"></feOffset><feComposite operator="in" in="flood" in2="offset" result="comp"></feComposite><feGaussianBlur in="offset" stdDeviation="3" result="shadow"></feGaussianBlur><feColorMatrix in="shadow" type="matrix" values="0.7 0 0 0 0  0 0.7 0 0 0  0 0 0.7 0 0  0 0 0 0.3 0" result="dark-shadow"></feColorMatrix><feOffset dx="0" dy="4" in="dark-shadow" result="offset-shadow"></feOffset><feOffset dx="0" dy="2" in="conv" result="offset-2"></feOffset><feComposite operator="out" in="offset" in2="offset-2" result="edge-diff"></feComposite><feGaussianBlur in="edge-diff" stdDeviation="1" result="edge-blur"></feGaussianBlur><feColorMatrix in="edge-blur" result="edge-shadow" type="matrix" values="0 0 0 0 0  0 0 0 0 0  0 0 0 0 0  0 0 0 0.5 0"></feColorMatrix><feComposite operator="in" in="edge-shadow" in2="offset" result="edge-shadow-in"></feComposite><feOffset dx="0" dy="1" in="edge-shadow-in" result="edge-shadow-final"></feOffset><feMerge result="out"><feMergeNode in="offset-shadow"></feMergeNode><feMergeNode in="comp"></feMergeNode><feMergeNode in="edge-shadow-final"></feMergeNode><feMergeNode in="SourceGraphic"></feMergeNode></feMerge></filter></defs><g filter="url(#editing-shiny)"><g transform="translate(207.8549889922142, 92.81999778747559)"><path d="M12.29 0.63L12.29 0.63Q8.82 0.63 5.71-0.16L5.71-0.16L5.71-0.16Q2.61-0.94 0.54-2.34L0.54-2.34L0.54-10.26L9.54-10.26L9.54-9.81L9.54-9.81Q9.54-7.38 11.88-7.38L11.88-7.38L11.88-7.38Q13.09-7.38 13.70-8.03L13.70-8.03L13.70-8.03Q14.31-8.69 14.31-10.08L14.31-10.08L14.31-27.63L10.26-27.63L10.26-35.01L29.16-35.01L29.16-27.63L26.91-27.63L26.91-12.51L26.91-12.51Q26.91-5.89 23.04-2.63L23.04-2.63L23.04-2.63Q19.17 0.63 12.29 0.63L12.29 0.63ZM69.34-27.63L69.34-35.01L83.75-35.01L83.75-27.63L81.94-27.63L75.24 0L61.78 0L57.69-19.44L57.24-19.44L52.92 0L39.46 0L32.31-27.63L30.51-27.63L30.51-35.01L47.16-35.01L47.16-27.63L45.45-27.63L47.20-16.16L47.66-16.16L51.93-35.01L64.89-35.01L68.85-16.16L69.30-16.16L71.06-27.63L69.34-27.63Z" fill="url(#editing-shiny-gradient)"></path></g></g><g filter="url(#editing-shiny2)"><g transform="translate(207.855000436306, 92.81999588012695)"><path d="M12.29 0.63L12.29 0.63Q8.82 0.63 5.71-0.16L5.71-0.16L5.71-0.16Q2.61-0.94 0.54-2.34L0.54-2.34L0.54-10.26L9.54-10.26L9.54-9.81L9.54-9.81Q9.54-7.38 11.88-7.38L11.88-7.38L11.88-7.38Q13.09-7.38 13.70-8.03L13.70-8.03L13.70-8.03Q14.31-8.69 14.31-10.08L14.31-10.08L14.31-27.63L10.26-27.63L10.26-35.01L29.16-35.01L29.16-27.63L26.91-27.63L26.91-12.51L26.91-12.51Q26.91-5.89 23.04-2.63L23.04-2.63L23.04-2.63Q19.17 0.63 12.29 0.63L12.29 0.63ZM69.34-27.63L69.34-35.01L83.75-35.01L83.75-27.63L81.94-27.63L75.24 0L61.78 0L57.69-19.44L57.24-19.44L52.92 0L39.46 0L32.31-27.63L30.51-27.63L30.51-35.01L47.16-35.01L47.16-27.63L45.45-27.63L47.20-16.16L47.66-16.16L51.93-35.01L64.89-35.01L68.85-16.16L69.30-16.16L71.06-27.63L69.34-27.63Z" fill="url(#editing-shiny-gradient2)"></path></g></g><style>text {
  font-size: 64px;
  font-family: Arial Black;
  dominant-baseline: central;
  text-anchor: middle;
}</style></svg>